<?xml version="1.0" encoding="utf-8"?>
<!-- Generator: Adobe Illustrator 16.0.0, SVG Export Plug-In . SVG Version: 6.00 Build 0)  -->
<!DOCTYPE svg PUBLIC "-//W3C//DTD SVG 1.1//EN" "http://www.w3.org/Graphics/SVG/1.1/DTD/svg11.dtd">
<svg version="1.1" id="Layer_1" xmlns="http://www.w3.org/2000/svg" xmlns:xlink="http://www.w3.org/1999/xlink" x="0px" y="0px"
	 width="160px" height="60px" viewBox="0 0 160 60" enable-background="new 0 0 160 60" xml:space="preserve">
<path fill="#077ED8" d="M5.336,3.99c0-1.162,0.915-2.427,2.39-2.427h8.121c4.571,0,8.684,3.058,8.684,8.929
	c0,5.554-4.113,8.647-8.684,8.647H9.978v4.64c0,1.547-0.985,2.426-2.251,2.426c-1.159,0-2.39-0.879-2.39-2.426V3.99z M9.978,5.994
	v8.751h5.869c2.355,0,4.219-2.075,4.219-4.253c0-2.46-1.863-4.499-4.219-4.499H9.978z"/>
<path fill="#077ED8" d="M39.936,26.173c-6.265,0.272-12.767-3.893-12.767-12.191c0-8.329,6.502-12.427,12.767-12.427
	C45.862,1.86,52.06,5.957,52.06,13.981C52.06,22.009,45.862,26.173,39.936,26.173z M39.564,5.957c-3.793,0-7.924,2.676-7.924,8.024
	c0,5.318,4.131,8.027,7.924,8.027c3.894,0,8.06-2.709,8.06-8.027C47.624,8.633,43.458,5.957,39.564,5.957z"/>
<path fill="#077ED8" d="M56.568,3.762c0-1.169,0.991-2.16,2.23-2.16c1.133,0,2.089,0.99,2.089,2.16V21.5h9.63
	c3.47,0,3.542,4.638,0,4.638H58.799c-1.239,0-2.23-0.886-2.23-2.16V3.762z"/>
<path fill="#077ED8" d="M76.292,26.175c-1.132-0.637-1.842-1.912-1.132-3.399L85.32,2.913c0.956-1.876,3.505-1.948,4.391,0
	l9.983,19.863c1.451,2.762-2.832,4.957-4.106,2.196l-1.558-3.116H80.965l-1.522,3.116C78.876,26.175,77.565,26.423,76.292,26.175z
	 M91.517,17.182l-4.002-8.745l-4.354,8.745H91.517z"/>
<path fill="#077ED8" d="M107.628,23.786c0,3.081-4.709,3.188-4.709,0.072V3.747c0-1.239,0.956-2.16,2.123-2.16h9.419
	c8.993,0,10.835,12.038,3.328,15.048l4.71,5.736c1.84,2.727-1.842,5.347-3.966,2.655l-5.347-7.647h-5.559V23.786z M107.628,13.307
	h6.833c4.604,0,4.887-7.436,0-7.436h-6.833V13.307z"/>
<path fill="#077ED8" d="M127.104,3.756c0-2.903,4.673-3.011,4.673,0v20.216c0,2.938-4.673,3.009-4.673,0V3.756z"/>
<path fill="#077ED8" d="M136.565,7.553c0.761-6.416,10.451-7.573,15.016-4.068c2.249,1.82-0.133,4.697-2.116,3.242
	c-2.448-1.554-8.004-2.281-8.699,1.158c-0.893,5.423,13.494,2.315,13.263,11.112c-0.231,8.401-12.403,8.598-16.967,4.83
	c-1.091-0.894-1.059-2.349-0.464-3.242c0.86-0.859,1.819-1.157,2.944-0.231c2.712,1.851,9.69,3.242,10.188-1.455
	C149.299,14.003,135.541,16.947,136.565,7.553z"/>
<path fill="#077ED8" d="M4.968,35.27c0-1.152,0.91-2.412,2.377-2.412h8.077c4.546,0,8.638,3.042,8.638,8.882
	c0,5.525-4.091,8.602-8.638,8.602H9.584v4.614c0,1.539-0.98,2.414-2.238,2.414c-1.154,0-2.377-0.875-2.377-2.414V35.27z
	 M9.584,37.265v8.706h5.838c2.343,0,4.197-2.064,4.197-4.231c0-2.447-1.854-4.475-4.197-4.475H9.584z"/>
<path fill="#077ED8" d="M32.8,55.051c0,3.104-4.746,3.211-4.746,0.069V34.854c0-1.249,0.964-2.177,2.142-2.177h9.491
	c9.064,0,10.919,12.13,3.354,15.164l4.747,5.78c1.856,2.748-1.855,5.389-3.997,2.676l-5.388-7.706H32.8V55.051z M32.8,44.488h6.887
	c4.639,0,4.924-7.494,0-7.494H32.8V44.488z"/>
<path fill="#077ED8" d="M64.177,57.377c-6.255,0.271-12.749-3.89-12.749-12.172c0-8.32,6.493-12.411,12.749-12.411
	c5.917,0.303,12.105,4.397,12.105,12.411C76.282,53.216,70.094,57.377,64.177,57.377z M63.804,37.191
	c-3.787,0-7.913,2.669-7.913,8.014c0,5.31,4.126,8.011,7.913,8.011c3.89,0,8.048-2.701,8.048-8.011
	C71.853,39.86,67.694,37.191,63.804,37.191z"/>
<polyline fill="#077ED8" points="67.358,56.287 74.885,59.149 74.123,50.438 "/>
<circle fill="#077ED8" cx="139.472" cy="39.856" r="2.419"/>
<circle fill="#077ED8" cx="145.479" cy="39.856" r="2.418"/>
<circle fill="#077ED8" cx="151.484" cy="39.856" r="2.419"/>
<polygon fill="#077ED8" points="42.464,8.483 38.172,13.18 37.29,19.481 41.582,14.784 "/>
<g>
	<path d="M82.095,43.119c-0.459,0-0.917-0.076-1.37-0.231c-0.453-0.157-0.82-0.392-1.101-0.704
		c-0.086-0.094-0.121-0.198-0.105-0.315c0.015-0.117,0.074-0.22,0.175-0.305c0.109-0.079,0.222-0.109,0.34-0.095
		c0.116,0.016,0.215,0.066,0.293,0.153c0.188,0.218,0.435,0.386,0.744,0.502c0.308,0.118,0.65,0.176,1.024,0.176
		c0.578,0,0.997-0.098,1.255-0.297c0.258-0.2,0.391-0.439,0.398-0.721c0-0.282-0.133-0.514-0.398-0.698
		c-0.266-0.182-0.704-0.325-1.313-0.427c-0.789-0.125-1.367-0.344-1.734-0.656c-0.368-0.313-0.551-0.684-0.551-1.112
		c0-0.398,0.105-0.731,0.315-0.995c0.211-0.268,0.493-0.467,0.845-0.599c0.351-0.133,0.739-0.199,1.159-0.199
		c0.523,0,0.976,0.089,1.354,0.269s0.684,0.421,0.92,0.727c0.077,0.102,0.109,0.208,0.092,0.315c-0.015,0.11-0.076,0.2-0.187,0.271
		c-0.093,0.055-0.2,0.073-0.323,0.053c-0.119-0.02-0.224-0.075-0.309-0.17c-0.195-0.226-0.423-0.393-0.681-0.497
		c-0.255-0.106-0.554-0.158-0.89-0.158c-0.429,0-0.772,0.088-1.031,0.263c-0.258,0.177-0.386,0.396-0.386,0.662
		c0,0.18,0.048,0.336,0.146,0.468c0.097,0.134,0.265,0.251,0.504,0.353c0.236,0.102,0.571,0.187,1.001,0.258
		c0.586,0.094,1.049,0.232,1.389,0.415c0.34,0.184,0.58,0.398,0.727,0.645c0.144,0.246,0.216,0.515,0.216,0.803
		c0,0.367-0.106,0.689-0.322,0.968c-0.215,0.276-0.512,0.493-0.891,0.65C83.022,43.043,82.588,43.119,82.095,43.119z"/>
	<path d="M85.762,37.674c-0.115,0-0.213-0.037-0.291-0.111c-0.078-0.075-0.118-0.165-0.118-0.277c0-0.115,0.04-0.211,0.118-0.286
		c0.078-0.074,0.176-0.111,0.291-0.111h2.987c0.118,0,0.216,0.037,0.295,0.111c0.077,0.075,0.115,0.171,0.115,0.286
		c0,0.112-0.038,0.202-0.115,0.277c-0.079,0.074-0.177,0.111-0.295,0.111H85.762z M88.68,43.063c-0.415,0-0.783-0.099-1.106-0.292
		c-0.324-0.195-0.581-0.464-0.769-0.804s-0.279-0.729-0.279-1.166v-5.729c0-0.134,0.04-0.242,0.121-0.328
		c0.082-0.086,0.19-0.13,0.322-0.13c0.133,0,0.242,0.044,0.328,0.13s0.129,0.194,0.129,0.328v5.729c0,0.398,0.116,0.725,0.352,0.978
		c0.234,0.256,0.536,0.383,0.902,0.383h0.316c0.125,0,0.228,0.043,0.305,0.128c0.078,0.086,0.116,0.196,0.116,0.329
		s-0.045,0.239-0.14,0.321c-0.094,0.082-0.211,0.123-0.353,0.123H88.68z"/>
	<path d="M93.67,43.133c-0.555,0-1.05-0.114-1.487-0.346c-0.437-0.23-0.783-0.569-1.037-1.014c-0.255-0.445-0.38-0.988-0.38-1.629
		v-3.046c0-0.124,0.042-0.23,0.127-0.314c0.088-0.088,0.193-0.13,0.318-0.13c0.134,0,0.24,0.042,0.327,0.13
		c0.085,0.084,0.13,0.19,0.13,0.314v3.046c0,0.484,0.091,0.883,0.273,1.195c0.185,0.313,0.435,0.547,0.751,0.704
		c0.316,0.156,0.674,0.233,1.073,0.233c0.381,0,0.728-0.073,1.036-0.223c0.308-0.146,0.552-0.352,0.732-0.609
		c0.18-0.258,0.269-0.55,0.269-0.878h0.645c-0.023,0.491-0.157,0.931-0.403,1.317c-0.247,0.388-0.578,0.692-0.99,0.914
		C94.638,43.021,94.179,43.133,93.67,43.133z M96.248,43.063c-0.133,0-0.24-0.041-0.323-0.123c-0.081-0.082-0.122-0.192-0.122-0.334
		v-5.507c0-0.132,0.041-0.239,0.122-0.322c0.083-0.082,0.19-0.122,0.323-0.122s0.242,0.04,0.327,0.122
		c0.087,0.083,0.13,0.19,0.13,0.322v5.507c0,0.142-0.043,0.252-0.13,0.334C96.49,43.021,96.381,43.063,96.248,43.063z"/>
	<path d="M101.73,43.119c-0.615,0-1.172-0.142-1.663-0.426c-0.492-0.284-0.881-0.674-1.166-1.166
		c-0.286-0.493-0.428-1.049-0.428-1.676c0-0.616,0.139-1.171,0.417-1.664c0.277-0.491,0.654-0.88,1.13-1.165
		c0.476-0.284,1.016-0.427,1.617-0.427c0.523,0,0.995,0.11,1.418,0.333c0.421,0.223,0.76,0.518,1.019,0.886v-3.446
		c0-0.139,0.044-0.251,0.13-0.334c0.085-0.081,0.194-0.122,0.327-0.122c0.132,0,0.242,0.041,0.329,0.122
		c0.085,0.083,0.128,0.195,0.128,0.334v5.531c-0.017,0.609-0.166,1.157-0.451,1.646c-0.284,0.489-0.671,0.873-1.16,1.153
		C102.89,42.979,102.341,43.119,101.73,43.119z M101.73,42.3c0.454,0,0.858-0.105,1.213-0.321c0.355-0.215,0.637-0.506,0.844-0.872
		c0.206-0.367,0.312-0.784,0.312-1.255c0-0.46-0.105-0.876-0.312-1.247c-0.207-0.371-0.488-0.662-0.844-0.874
		c-0.354-0.21-0.759-0.314-1.213-0.314c-0.445,0-0.847,0.104-1.204,0.314c-0.363,0.212-0.646,0.503-0.858,0.874
		c-0.21,0.371-0.315,0.787-0.315,1.247c0,0.471,0.105,0.888,0.315,1.255c0.213,0.366,0.495,0.657,0.858,0.872
		C100.884,42.194,101.285,42.3,101.73,42.3z"/>
	<path d="M107.729,35.436c-0.171,0-0.32-0.063-0.444-0.188c-0.126-0.125-0.188-0.277-0.188-0.457c0-0.195,0.063-0.35,0.193-0.464
		c0.129-0.112,0.277-0.169,0.45-0.169c0.165,0,0.311,0.057,0.439,0.169c0.128,0.114,0.193,0.269,0.193,0.464
		c0,0.18-0.064,0.332-0.188,0.457C108.061,35.372,107.909,35.436,107.729,35.436z M107.741,43.063c-0.14,0-0.253-0.041-0.334-0.123
		c-0.083-0.082-0.122-0.192-0.122-0.334v-5.494c0-0.141,0.039-0.252,0.122-0.335c0.081-0.082,0.194-0.122,0.334-0.122
		c0.133,0,0.24,0.04,0.321,0.122c0.082,0.083,0.124,0.194,0.124,0.335v5.494c0,0.142-0.042,0.252-0.124,0.334
		C107.981,43.021,107.874,43.063,107.741,43.063z"/>
	<path d="M113.4,43.119c-0.625,0-1.186-0.14-1.676-0.421c-0.491-0.28-0.879-0.666-1.16-1.159c-0.282-0.492-0.421-1.05-0.421-1.675
		c0-0.633,0.139-1.195,0.421-1.688c0.281-0.491,0.669-0.879,1.16-1.16c0.49-0.281,1.051-0.421,1.676-0.421
		c0.624,0,1.182,0.14,1.669,0.421c0.488,0.281,0.872,0.669,1.154,1.16c0.281,0.492,0.426,1.055,0.435,1.688
		c0,0.625-0.145,1.183-0.43,1.675c-0.284,0.493-0.671,0.879-1.159,1.159C114.582,42.979,114.024,43.119,113.4,43.119z M113.4,42.3
		c0.451,0,0.857-0.103,1.218-0.314c0.359-0.212,0.641-0.501,0.844-0.867c0.202-0.368,0.306-0.785,0.306-1.254
		s-0.104-0.889-0.306-1.26c-0.203-0.371-0.484-0.662-0.844-0.874c-0.36-0.21-0.767-0.314-1.218-0.314
		c-0.453,0-0.861,0.104-1.219,0.314c-0.359,0.212-0.642,0.503-0.851,0.874c-0.206,0.371-0.311,0.791-0.311,1.26
		s0.104,0.886,0.311,1.254c0.209,0.366,0.491,0.655,0.851,0.867C112.539,42.197,112.947,42.3,113.4,42.3z"/>
	<path d="M121.919,37.475c-0.275,0-0.413-0.137-0.413-0.41s0.138-0.41,0.413-0.41h4.346c0.271,0,0.409,0.137,0.409,0.41
		s-0.138,0.41-0.409,0.41H121.919z M121.964,43.063c-0.271,0-0.41-0.137-0.41-0.409c0-0.274,0.139-0.411,0.41-0.411h4.347
		c0.273,0,0.409,0.137,0.409,0.411c0,0.272-0.136,0.409-0.409,0.409H121.964z M122.374,42.758l-0.738-0.397l4.359-5.543l0.609,0.516
		L122.374,42.758z"/>
	<path d="M130.868,43.119c-0.602,0-1.142-0.142-1.617-0.426c-0.475-0.284-0.854-0.674-1.13-1.166
		c-0.277-0.493-0.416-1.046-0.416-1.663c0-0.625,0.143-1.184,0.428-1.677c0.284-0.491,0.675-0.88,1.166-1.165
		c0.491-0.284,1.046-0.427,1.663-0.427c0.616,0,1.17,0.143,1.658,0.427c0.488,0.285,0.875,0.674,1.158,1.165
		c0.287,0.493,0.433,1.052,0.44,1.677l-0.362,0.28c0,0.563-0.132,1.069-0.394,1.519c-0.262,0.448-0.616,0.804-1.065,1.065
		S131.437,43.119,130.868,43.119z M130.962,42.3c0.452,0,0.857-0.103,1.213-0.314c0.356-0.212,0.636-0.503,0.843-0.873
		c0.207-0.371,0.312-0.787,0.312-1.248c0-0.469-0.104-0.887-0.312-1.254c-0.207-0.366-0.486-0.657-0.843-0.873
		c-0.355-0.215-0.761-0.321-1.213-0.321c-0.446,0-0.848,0.106-1.207,0.321c-0.359,0.216-0.642,0.507-0.855,0.873
		c-0.21,0.367-0.316,0.785-0.316,1.254c0,0.461,0.106,0.877,0.316,1.248c0.214,0.37,0.496,0.661,0.855,0.873
		S130.516,42.3,130.962,42.3z M133.762,43.063c-0.133,0-0.242-0.041-0.328-0.123s-0.129-0.188-0.129-0.321v-2.005l0.224-0.925
		l0.69,0.176v2.754c0,0.133-0.042,0.239-0.13,0.321C134.005,43.021,133.896,43.063,133.762,43.063z"/>
	<path d="M82.095,55.228c-0.459,0-0.917-0.078-1.37-0.234c-0.453-0.155-0.82-0.39-1.101-0.702c-0.086-0.095-0.121-0.199-0.105-0.315
		c0.015-0.117,0.074-0.221,0.175-0.306c0.109-0.079,0.222-0.108,0.34-0.093c0.116,0.014,0.215,0.065,0.293,0.152
		c0.188,0.218,0.435,0.386,0.744,0.502c0.308,0.117,0.65,0.176,1.024,0.176c0.578,0,0.997-0.099,1.255-0.297
		c0.258-0.201,0.391-0.44,0.398-0.723c0-0.28-0.133-0.513-0.398-0.696s-0.704-0.326-1.313-0.429
		c-0.789-0.123-1.367-0.343-1.734-0.654c-0.368-0.313-0.551-0.685-0.551-1.114c0-0.397,0.105-0.729,0.315-0.995
		c0.211-0.266,0.493-0.466,0.845-0.598c0.351-0.132,0.739-0.199,1.159-0.199c0.523,0,0.976,0.09,1.354,0.27s0.684,0.422,0.92,0.726
		c0.077,0.103,0.109,0.208,0.092,0.316c-0.015,0.111-0.076,0.199-0.187,0.271c-0.093,0.054-0.2,0.072-0.323,0.052
		c-0.119-0.02-0.224-0.075-0.309-0.17c-0.195-0.226-0.423-0.393-0.681-0.497c-0.255-0.106-0.554-0.157-0.89-0.157
		c-0.429,0-0.772,0.087-1.031,0.262c-0.258,0.178-0.386,0.397-0.386,0.664c0,0.178,0.048,0.335,0.146,0.466
		c0.097,0.136,0.265,0.251,0.504,0.354c0.236,0.101,0.571,0.187,1.001,0.256c0.586,0.096,1.049,0.233,1.389,0.417
		s0.58,0.398,0.727,0.644c0.144,0.247,0.216,0.515,0.216,0.804c0,0.367-0.106,0.688-0.322,0.965
		c-0.215,0.28-0.512,0.496-0.891,0.651C83.022,55.149,82.588,55.228,82.095,55.228z"/>
	<path d="M85.762,49.781c-0.115,0-0.213-0.039-0.291-0.112c-0.078-0.074-0.118-0.166-0.118-0.275c0-0.118,0.04-0.213,0.118-0.288
		c0.078-0.074,0.176-0.111,0.291-0.111h2.987c0.118,0,0.216,0.037,0.295,0.111c0.077,0.075,0.115,0.17,0.115,0.288
		c0,0.109-0.038,0.201-0.115,0.275c-0.079,0.073-0.177,0.112-0.295,0.112H85.762z M88.68,55.169c-0.415,0-0.783-0.097-1.106-0.292
		c-0.324-0.196-0.581-0.464-0.769-0.804c-0.188-0.339-0.279-0.728-0.279-1.165v-5.729c0-0.133,0.04-0.241,0.121-0.327
		c0.082-0.087,0.19-0.131,0.322-0.131c0.133,0,0.242,0.044,0.328,0.131c0.086,0.086,0.129,0.194,0.129,0.327v5.729
		c0,0.398,0.116,0.724,0.352,0.979c0.234,0.254,0.536,0.38,0.902,0.38h0.316c0.125,0,0.228,0.044,0.305,0.13
		c0.078,0.086,0.116,0.195,0.116,0.328c0,0.132-0.045,0.24-0.14,0.322c-0.094,0.081-0.211,0.122-0.353,0.122H88.68z"/>
	<path d="M91.327,55.169c-0.14,0-0.249-0.039-0.326-0.117c-0.079-0.078-0.119-0.187-0.119-0.327v-5.52c0-0.14,0.04-0.25,0.119-0.327
		c0.077-0.078,0.187-0.118,0.326-0.118c0.141,0,0.25,0.04,0.329,0.118c0.077,0.077,0.115,0.188,0.115,0.327v5.52
		c0,0.141-0.038,0.249-0.115,0.327C91.577,55.13,91.468,55.169,91.327,55.169z M91.257,51.222c0.022-0.485,0.15-0.919,0.38-1.302
		c0.23-0.381,0.531-0.683,0.903-0.901c0.37-0.219,0.782-0.327,1.236-0.327c0.358,0,0.636,0.05,0.832,0.15
		c0.194,0.104,0.269,0.252,0.224,0.446c-0.033,0.116-0.085,0.194-0.158,0.235c-0.076,0.038-0.165,0.054-0.271,0.045
		c-0.105-0.007-0.224-0.015-0.357-0.022c-0.437-0.039-0.825,0.006-1.165,0.135s-0.609,0.325-0.808,0.592
		c-0.2,0.265-0.301,0.582-0.301,0.949H91.257z"/>
	<path d="M98.603,55.228c-0.602,0-1.141-0.143-1.617-0.427c-0.476-0.286-0.853-0.674-1.129-1.167
		c-0.277-0.492-0.418-1.046-0.418-1.663c0-0.625,0.145-1.184,0.43-1.676c0.284-0.491,0.673-0.88,1.166-1.166
		c0.492-0.284,1.046-0.427,1.662-0.427c0.618,0,1.172,0.143,1.659,0.427c0.487,0.286,0.874,0.675,1.16,1.166
		c0.283,0.492,0.43,1.051,0.438,1.676l-0.362,0.281c0,0.562-0.131,1.068-0.393,1.518c-0.261,0.449-0.616,0.804-1.066,1.066
		C99.683,55.097,99.174,55.228,98.603,55.228z M98.696,54.407c0.453,0,0.858-0.104,1.214-0.315c0.354-0.21,0.635-0.503,0.844-0.873
		c0.206-0.371,0.31-0.787,0.31-1.248c0-0.469-0.104-0.886-0.31-1.253c-0.209-0.367-0.489-0.658-0.844-0.873
		c-0.355-0.215-0.761-0.321-1.214-0.321c-0.444,0-0.847,0.106-1.207,0.321c-0.358,0.215-0.644,0.506-0.854,0.873
		c-0.21,0.367-0.316,0.784-0.316,1.253c0,0.461,0.106,0.877,0.316,1.248c0.211,0.37,0.496,0.663,0.854,0.873
		C97.85,54.304,98.252,54.407,98.696,54.407z M101.498,55.169c-0.133,0-0.243-0.041-0.328-0.122c-0.088-0.082-0.13-0.19-0.13-0.322
		v-2.004l0.223-0.926l0.69,0.176v2.754c0,0.132-0.042,0.24-0.127,0.322C101.739,55.128,101.628,55.169,101.498,55.169z"/>
	<path d="M104.168,55.169c-0.14,0-0.252-0.041-0.335-0.122c-0.08-0.082-0.121-0.19-0.121-0.322v-5.507
		c0-0.141,0.041-0.251,0.121-0.334c0.083-0.083,0.195-0.124,0.335-0.124c0.132,0,0.24,0.041,0.321,0.124
		c0.083,0.083,0.124,0.193,0.124,0.334v5.507c0,0.132-0.041,0.24-0.124,0.322C104.408,55.128,104.3,55.169,104.168,55.169z
		 M109.206,55.169c-0.133,0-0.242-0.042-0.326-0.128c-0.089-0.087-0.13-0.192-0.13-0.316v-3.047c0-0.484-0.093-0.882-0.277-1.195
		c-0.183-0.312-0.432-0.546-0.75-0.701c-0.314-0.157-0.673-0.235-1.071-0.235c-0.383,0-0.729,0.074-1.037,0.223
		c-0.308,0.147-0.553,0.351-0.732,0.609c-0.179,0.258-0.269,0.55-0.269,0.879h-0.646c0.016-0.491,0.15-0.932,0.4-1.318
		c0.249-0.387,0.581-0.692,0.995-0.914c0.412-0.224,0.875-0.333,1.382-0.333c0.555,0,1.051,0.114,1.488,0.344
		c0.438,0.231,0.783,0.568,1.036,1.014s0.382,0.99,0.382,1.629v3.047c0,0.124-0.042,0.229-0.13,0.316
		C109.437,55.127,109.331,55.169,109.206,55.169z"/>
	<path d="M114.548,55.228c-0.633,0-1.193-0.14-1.682-0.416c-0.488-0.277-0.87-0.66-1.147-1.154
		c-0.275-0.491-0.416-1.054-0.416-1.687c0-0.64,0.131-1.204,0.392-1.692c0.263-0.487,0.625-0.874,1.085-1.155
		c0.462-0.281,0.991-0.421,1.593-0.421c0.593,0,1.111,0.134,1.554,0.403c0.439,0.271,0.781,0.644,1.024,1.119
		c0.241,0.478,0.362,1.02,0.362,1.629c0,0.125-0.038,0.226-0.116,0.299c-0.078,0.075-0.181,0.11-0.305,0.11h-4.98v-0.75h5.074
		l-0.503,0.364c0.008-0.453-0.075-0.858-0.246-1.219c-0.174-0.36-0.417-0.639-0.733-0.844c-0.315-0.203-0.693-0.303-1.131-0.303
		c-0.445,0-0.836,0.104-1.173,0.316c-0.335,0.21-0.594,0.5-0.777,0.872c-0.184,0.37-0.274,0.794-0.274,1.271
		c0,0.478,0.103,0.899,0.31,1.265c0.207,0.368,0.49,0.656,0.85,0.868c0.358,0.211,0.772,0.316,1.241,0.316
		c0.281,0,0.565-0.05,0.85-0.147c0.285-0.097,0.516-0.22,0.687-0.369c0.085-0.07,0.182-0.107,0.292-0.111s0.203,0.026,0.282,0.09
		c0.101,0.094,0.153,0.193,0.157,0.304c0.004,0.109-0.042,0.203-0.135,0.281c-0.259,0.218-0.587,0.4-0.985,0.545
		C115.298,55.155,114.915,55.228,114.548,55.228z"/>
	<path d="M120.57,57.911c-0.133,0-0.242-0.042-0.328-0.125c-0.086-0.08-0.128-0.191-0.128-0.331c0-0.133,0.042-0.244,0.128-0.329
		c0.086-0.086,0.195-0.128,0.328-0.128c0.359,0,0.676-0.079,0.95-0.236c0.271-0.156,0.489-0.37,0.649-0.643
		c0.16-0.275,0.239-0.59,0.239-0.95v-5.951c0-0.141,0.042-0.251,0.123-0.334c0.082-0.083,0.189-0.124,0.322-0.124
		c0.134,0,0.242,0.041,0.328,0.124s0.129,0.193,0.129,0.334v5.951c0,0.531-0.117,1.004-0.351,1.417
		c-0.235,0.415-0.56,0.74-0.974,0.974C121.573,57.794,121.103,57.911,120.57,57.911z M122.843,47.543
		c-0.171,0-0.32-0.063-0.445-0.188c-0.124-0.126-0.188-0.277-0.188-0.456c0-0.195,0.065-0.35,0.192-0.464
		c0.13-0.112,0.28-0.17,0.452-0.17c0.164,0,0.312,0.058,0.439,0.17c0.13,0.114,0.193,0.269,0.193,0.464
		c0,0.179-0.062,0.33-0.187,0.456C123.175,47.479,123.022,47.543,122.843,47.543z"/>
	<path d="M128.045,55.228c-0.633,0-1.193-0.14-1.683-0.416c-0.487-0.277-0.868-0.66-1.147-1.154
		c-0.276-0.491-0.415-1.054-0.415-1.687c0-0.64,0.13-1.204,0.394-1.692c0.261-0.487,0.622-0.874,1.082-1.155
		c0.461-0.281,0.991-0.421,1.595-0.421c0.594,0,1.11,0.134,1.551,0.403c0.441,0.271,0.784,0.644,1.027,1.119
		c0.239,0.478,0.362,1.02,0.362,1.629c0,0.125-0.041,0.226-0.118,0.299c-0.077,0.075-0.181,0.11-0.303,0.11h-4.981v-0.75h5.074
		l-0.504,0.364c0.008-0.453-0.074-0.858-0.246-1.219s-0.416-0.639-0.732-0.844c-0.316-0.203-0.693-0.303-1.13-0.303
		c-0.447,0-0.837,0.104-1.173,0.316c-0.336,0.21-0.595,0.5-0.778,0.872c-0.185,0.37-0.275,0.794-0.275,1.271
		c0,0.478,0.104,0.899,0.311,1.265c0.207,0.368,0.489,0.656,0.85,0.868c0.359,0.211,0.772,0.316,1.241,0.316
		c0.282,0,0.565-0.05,0.849-0.147c0.286-0.097,0.515-0.22,0.686-0.369c0.088-0.07,0.184-0.107,0.294-0.111
		c0.109-0.004,0.202,0.026,0.281,0.09c0.101,0.094,0.154,0.193,0.158,0.304c0.004,0.109-0.041,0.203-0.136,0.281
		c-0.258,0.218-0.586,0.4-0.984,0.545C128.795,55.155,128.412,55.228,128.045,55.228z"/>
	<path d="M132.404,49.581c-0.274,0-0.41-0.137-0.41-0.41s0.136-0.411,0.41-0.411h4.345c0.274,0,0.412,0.138,0.412,0.411
		s-0.138,0.41-0.412,0.41H132.404z M132.45,55.169c-0.272,0-0.409-0.136-0.409-0.409c0-0.274,0.137-0.411,0.409-0.411h4.346
		c0.274,0,0.41,0.137,0.41,0.411c0,0.273-0.136,0.409-0.41,0.409H132.45z M132.859,54.865l-0.737-0.398l4.358-5.542l0.608,0.516
		L132.859,54.865z"/>
	<path d="M139.397,47.543c-0.172,0-0.319-0.063-0.445-0.188c-0.123-0.126-0.187-0.277-0.187-0.456c0-0.195,0.064-0.35,0.192-0.464
		c0.13-0.112,0.28-0.17,0.453-0.17c0.163,0,0.31,0.058,0.438,0.17c0.128,0.114,0.192,0.269,0.192,0.464
		c0,0.179-0.062,0.33-0.187,0.456C139.729,47.479,139.578,47.543,139.397,47.543z M139.411,55.169c-0.142,0-0.254-0.041-0.335-0.122
		c-0.083-0.082-0.124-0.194-0.124-0.335v-5.494c0-0.141,0.041-0.251,0.124-0.334c0.081-0.083,0.193-0.124,0.335-0.124
		c0.131,0,0.239,0.041,0.32,0.124c0.083,0.083,0.124,0.193,0.124,0.334v5.494c0,0.141-0.041,0.253-0.124,0.335
		C139.65,55.128,139.542,55.169,139.411,55.169z"/>
	<path d="M142.597,55.169c-0.134,0-0.24-0.041-0.322-0.122c-0.081-0.082-0.123-0.19-0.123-0.322v-8.261
		c0-0.132,0.042-0.239,0.123-0.323c0.082-0.08,0.188-0.121,0.322-0.121c0.133,0,0.241,0.041,0.322,0.121
		c0.082,0.084,0.122,0.191,0.122,0.323v8.261c0,0.132-0.04,0.24-0.122,0.322C142.838,55.128,142.729,55.169,142.597,55.169z
		 M142.888,53.025l-0.549-0.598l4.007-3.62c0.094-0.086,0.19-0.126,0.291-0.123c0.104,0.005,0.198,0.054,0.283,0.146
		c0.087,0.095,0.126,0.194,0.122,0.299c-0.004,0.106-0.052,0.198-0.146,0.275L142.888,53.025z M146.931,55.11
		c-0.1,0.088-0.206,0.124-0.316,0.112c-0.108-0.012-0.203-0.069-0.282-0.171l-2.611-3.211l0.634-0.562l2.636,3.245
		c0.078,0.094,0.112,0.193,0.104,0.3C147.087,54.93,147.033,55.025,146.931,55.11z"/>
	<path d="M151.172,55.228c-0.633,0-1.193-0.14-1.683-0.416c-0.485-0.277-0.869-0.66-1.146-1.154
		c-0.276-0.491-0.416-1.054-0.416-1.687c0-0.64,0.13-1.204,0.392-1.692c0.262-0.487,0.623-0.874,1.085-1.155
		c0.461-0.281,0.99-0.421,1.593-0.421c0.593,0,1.111,0.134,1.553,0.403c0.44,0.271,0.783,0.644,1.024,1.119
		c0.241,0.478,0.364,1.02,0.364,1.629c0,0.125-0.039,0.226-0.118,0.299c-0.077,0.075-0.18,0.11-0.304,0.11h-4.979v-0.75h5.073
		l-0.504,0.364c0.008-0.453-0.073-0.858-0.245-1.219c-0.173-0.36-0.416-0.639-0.732-0.844c-0.317-0.203-0.695-0.303-1.132-0.303
		c-0.445,0-0.836,0.104-1.173,0.316c-0.336,0.21-0.594,0.5-0.777,0.872c-0.183,0.37-0.275,0.794-0.275,1.271
		c0,0.478,0.104,0.899,0.31,1.265c0.208,0.368,0.491,0.656,0.851,0.868c0.358,0.211,0.772,0.316,1.241,0.316
		c0.28,0,0.565-0.05,0.849-0.147c0.287-0.097,0.516-0.22,0.688-0.369c0.085-0.07,0.183-0.107,0.292-0.111s0.204,0.026,0.281,0.09
		c0.102,0.094,0.154,0.193,0.158,0.304c0.003,0.109-0.042,0.203-0.136,0.281c-0.257,0.218-0.585,0.4-0.984,0.545
		C151.922,55.155,151.54,55.228,151.172,55.228z"/>
</g>
</svg>
