<svg width="96" height="95" viewBox="0 0 96 95" fill="none" xmlns="http://www.w3.org/2000/svg">
<path d="M32.7561 8.45625C36.0373 3.1875 41.8123 0 47.9998 0C54.1873 0 59.9623 3.1875 63.2436 8.45625L70.4811 20.025L75.5436 17.1C77.1186 16.1812 79.0873 16.3125 80.5311 17.4188C81.9748 18.525 82.6123 20.4 82.1436 22.1625L77.7561 38.55C77.1186 40.95 74.6436 42.375 72.2436 41.7375L55.8561 37.35C54.0936 36.8812 52.7998 35.4 52.5561 33.6C52.3123 31.8 53.1936 30.0188 54.7686 29.1188L60.0936 26.0437L53.0623 14.8125C51.9748 13.0687 50.0623 12 47.9998 12C45.9373 12 44.0248 13.0687 42.9373 14.8125L39.6561 20.0625C37.9311 22.8375 34.2936 23.7188 31.4811 22.0312C28.6123 20.3063 27.6936 16.5562 29.4748 13.7062L32.7561 8.45625ZM80.5311 47.2312C83.3436 45.5437 86.9811 46.425 88.7061 49.2L93.2811 56.5312C95.0436 59.3625 95.9811 62.6063 96.0186 65.9438C96.0748 75.9 88.0123 84.0188 78.0561 84.0188L59.9998 84V90C59.9998 91.8187 58.9123 93.4688 57.2248 94.1625C55.5373 94.8563 53.6061 94.4813 52.3123 93.1875L40.3123 81.1875C38.5498 79.425 38.5498 76.575 40.3123 74.8313L52.3123 62.8313C53.6061 61.5375 55.5373 61.1625 57.2248 61.8562C58.9123 62.55 59.9998 64.2 59.9998 66.0188V72.0188H78.0373C81.3373 72.0188 84.0186 69.3188 83.9998 66.0188C83.9998 64.9125 83.6811 63.825 83.0998 62.8875L78.5248 55.5562C76.7436 52.7062 77.6436 48.9562 80.5311 47.2312ZM12.1686 41.4187L6.7498 38.2875C5.1748 37.3687 4.29355 35.6063 4.5373 33.8063C4.78105 32.0063 6.0748 30.525 7.8373 30.0563L24.2248 25.6687C26.6248 25.0312 29.0998 26.4562 29.7373 28.8562L34.1248 45.225C34.5936 46.9875 33.9561 48.8438 32.5123 49.9688C31.0686 51.0938 29.0998 51.2063 27.5248 50.2875L22.5561 47.4187L12.8998 62.8687C12.3186 63.8062 11.9998 64.8937 11.9998 66C11.9811 69.3 14.6623 72 17.9623 72H23.9998C27.3186 72 29.9998 74.6812 29.9998 78C29.9998 81.3188 27.3186 84 23.9998 84H17.9623C8.00606 84 -0.0564457 75.9 -0.00019573 65.925C0.0185543 62.5875 0.956054 59.3437 2.7373 56.5125L12.1686 41.4187Z" fill="#005598"/>
</svg>
