<svg width="97" height="97" viewBox="0 0 97 97" fill="none" xmlns="http://www.w3.org/2000/svg">
<g clip-path="url(#clip0_289_22)">
<path d="M66.6875 48.5C66.6875 52.7059 66.4602 56.7602 66.0623 60.625H30.9377C30.5209 56.7602 30.3125 52.7059 30.3125 48.5C30.3125 44.2941 30.5398 40.2398 30.9377 36.375H66.0623C66.4791 40.2398 66.6875 44.2941 66.6875 48.5ZM72.1437 36.375H95.4654C96.4695 40.2588 97 44.3131 97 48.5C97 52.6869 96.4695 56.7412 95.4654 60.625H72.1437C72.5416 56.7223 72.75 52.668 72.75 48.5C72.75 44.332 72.5416 40.2777 72.1437 36.375ZM93.4762 30.3125H71.367C69.4725 18.2064 65.7213 8.0707 60.8902 1.59141C75.7244 5.51309 87.7926 16.274 93.4572 30.3125H93.4762ZM65.2287 30.3125H31.7713C32.927 23.4164 34.7078 17.316 36.8865 12.3713C38.8758 7.9002 41.0924 4.66055 43.2332 2.61445C45.3551 0.60625 47.117 0 48.5 0C49.883 0 51.6449 0.60625 53.7668 2.61445C55.9076 4.66055 58.1242 7.9002 60.1135 12.3713C62.3111 17.2971 64.092 23.3975 65.2287 30.3125ZM25.633 30.3125H3.52383C9.20742 16.274 21.2566 5.51309 36.1098 1.59141C31.2787 8.0707 27.5275 18.2064 25.633 30.3125ZM1.53457 36.375H24.8562C24.4584 40.2777 24.25 44.332 24.25 48.5C24.25 52.668 24.4584 56.7223 24.8562 60.625H1.53457C0.530469 56.7412 0 52.6869 0 48.5C0 44.3131 0.530469 40.2588 1.53457 36.375ZM36.8865 84.6098C34.6889 79.684 32.927 73.5836 31.7713 66.6875H65.2287C64.073 73.5836 62.2922 79.684 60.1135 84.6098C58.1242 89.0809 55.9076 92.3205 53.7668 94.3666C51.6449 96.3938 49.883 97 48.5 97C47.117 97 45.3551 96.3938 43.2332 94.3855C41.0924 92.3395 38.8758 89.0998 36.8865 84.6287V84.6098ZM25.633 66.6875C27.5275 78.7936 31.2787 88.9293 36.1098 95.4086C21.2566 91.4869 9.20742 80.726 3.52383 66.6875H25.633ZM93.4762 66.6875C87.7926 80.726 75.7434 91.4869 60.9092 95.4086C65.7402 88.9293 69.4725 78.7936 71.3859 66.6875H93.4762Z" fill="#005598"/>
</g>
<defs>
<clipPath id="clip0_289_22">
<rect width="97" height="97" fill="white"/>
</clipPath>
</defs>
</svg>
