<svg width="95" height="95" viewBox="0 0 95 95" fill="none" xmlns="http://www.w3.org/2000/svg">
<g clip-path="url(#clip0_289_32)">
<path d="M95 14.8438C95 18.1836 92.3467 21.2637 87.875 23.75C82.4756 26.7373 74.4228 28.8525 65.1826 29.4834C64.4961 29.1494 63.8096 28.834 63.0859 28.5557C55.7754 25.4941 46.0527 23.75 35.625 23.75C34.085 23.75 32.582 23.7871 31.0791 23.8613L30.875 23.75C26.4033 21.2637 23.75 18.1836 23.75 14.8438C23.75 6.64258 39.707 0 59.375 0C79.043 0 95 6.64258 95 14.8438ZM29.8174 29.8916C31.71 29.7617 33.6582 29.6875 35.625 29.6875C47.166 29.6875 57.4082 31.9697 63.9209 35.5137C68.5225 38.0186 71.25 41.1357 71.25 44.5312C71.25 45.2734 71.1201 45.9971 70.8604 46.7021C70.0068 49.1514 67.7061 51.3965 64.3662 53.2891C64.3477 53.3076 64.3105 53.3076 64.292 53.3262C64.2363 53.3633 64.1807 53.3818 64.125 53.4189C57.6309 57.0186 47.2773 59.3564 35.625 59.3564C24.5664 59.3564 14.6768 57.2598 8.12695 53.957C7.77441 53.79 7.44043 53.6045 7.10645 53.4189C2.65332 50.9512 0 47.8711 0 44.5312C0 38.0742 9.9082 32.5635 23.75 30.541C25.6982 30.2627 27.7207 30.04 29.8174 29.8916ZM77.1875 44.5312C77.1875 40.4678 75.2207 37.1279 72.7158 34.623C77.9668 33.8066 82.7725 32.5078 86.8545 30.8193C89.8789 29.5576 92.6992 27.999 95 26.0879V32.6562C95 36.2373 91.9385 39.54 86.873 42.1006C84.1641 43.4736 80.8613 44.6426 77.1504 45.5332C77.1689 45.1992 77.1875 44.8838 77.1875 44.5498V44.5312ZM71.25 62.3438C71.25 65.6836 68.5967 68.7637 64.125 71.25C63.791 71.4355 63.457 71.6025 63.1045 71.7881C56.5732 75.0908 46.6836 77.1875 35.625 77.1875C23.9727 77.1875 13.6191 74.8496 7.125 71.25C2.65332 68.7637 0 65.6836 0 62.3438V55.7754C2.31934 57.6865 5.12109 59.2451 8.14551 60.5068C15.4746 63.5684 25.1973 65.3125 35.625 65.3125C46.0527 65.3125 55.7754 63.5684 63.1045 60.5068C64.5518 59.9131 65.9434 59.2266 67.2607 58.4844C68.3926 57.8535 69.4502 57.1484 70.4522 56.4062C70.7305 56.2021 70.9902 55.9795 71.25 55.7754V56.4062V57.4639V62.3438ZM77.1875 62.3438V56.4062V51.6006C80.7129 50.8213 83.96 49.8379 86.8545 48.6318C89.8789 47.3701 92.6992 45.8115 95 43.9004V50.4688C95 52.417 94.0723 54.3652 92.2354 56.2021C89.2109 59.2266 83.8857 61.7129 77.1504 63.3271C77.1689 63.0117 77.1875 62.6777 77.1875 62.3438ZM35.625 83.125C46.0527 83.125 55.7754 81.3809 63.1045 78.3193C66.1289 77.0576 68.9492 75.499 71.25 73.5879V80.1562C71.25 88.3574 55.293 95 35.625 95C15.957 95 0 88.3574 0 80.1562V73.5879C2.31934 75.499 5.12109 77.0576 8.14551 78.3193C15.4746 81.3809 25.1973 83.125 35.625 83.125Z" fill="#005598"/>
</g>
<defs>
<clipPath id="clip0_289_32">
<rect width="95" height="95" fill="white"/>
</clipPath>
</defs>
</svg>
