<svg width="86" height="88" viewBox="0 0 86 88" fill="none" xmlns="http://www.w3.org/2000/svg">
<path d="M33.2759 53.1418C33.7802 52.9783 34.199 52.6212 34.4401 52.1491C34.6813 51.6769 34.7251 51.1283 34.5619 50.6239L30.3499 37.6239L41.9999 29.1519L53.6479 37.6239L51.1179 45.3999C51.0239 45.6525 50.9819 45.9216 50.9945 46.1909C51.0071 46.4602 51.074 46.7242 51.1912 46.967C51.3084 47.2098 51.4735 47.4264 51.6765 47.6037C51.8796 47.7811 52.1164 47.9156 52.3727 47.9991C52.6291 48.0826 52.8997 48.1134 53.1682 48.0897C53.4368 48.066 53.6978 47.9882 53.9355 47.8611C54.1733 47.7339 54.3828 47.56 54.5517 47.3498C54.7205 47.1396 54.8451 46.8974 54.9179 46.6379L57.6259 38.3179L67.1399 34.0578L77.9139 41.8739C77.7506 45.3157 77.0842 48.7151 75.9359 51.9639C75.7566 52.4633 75.7831 53.0134 76.0094 53.4933C76.2358 53.9732 76.6435 54.3436 77.1429 54.5229C77.6423 54.7021 78.1925 54.6757 78.6724 54.4493C79.1523 54.223 79.5226 53.8153 79.7019 53.3159C81.11 49.368 81.8771 45.2202 81.9739 41.0299C81.9999 40.6858 81.9999 40.3419 81.9999 39.9999C81.9895 31.7204 79.4137 23.6476 74.627 16.892C69.8403 10.1365 63.0778 5.0303 55.2699 2.27585C47.3047 -0.527635 38.6563 -0.736372 30.5651 1.67958C22.474 4.09554 15.3559 9.01204 10.2319 15.7239C4.87231 22.6794 1.97652 31.219 1.9999 39.9999C1.9999 40.3419 1.9999 40.6859 2.0199 40.9419C2.1026 44.9407 2.79178 48.9038 4.0639 52.6959C4.23231 53.1998 4.594 53.6161 5.06941 53.8534C5.54481 54.0906 6.09498 54.1293 6.5989 53.9608C7.10281 53.7924 7.51918 53.4307 7.75641 52.9553C7.99365 52.4799 8.03231 51.9298 7.8639 51.4258C6.8392 48.3391 6.24166 45.1266 6.0879 41.8778L16.8659 34.0578L26.3779 38.3179L30.7659 51.8579C30.9298 52.3618 31.2871 52.7801 31.7592 53.0208C32.2313 53.2616 32.7797 53.3051 33.2839 53.1418H33.2759ZM72.8179 21.4619C75.6705 26.1465 77.3978 31.4289 77.8639 36.8939L69.7299 30.9999L72.8179 21.4619ZM69.9399 17.3639L65.7519 30.2979L56.2359 34.5599L43.9999 25.6619V14.3379L54.8919 6.41985C60.7894 8.66933 65.9828 12.4463 69.9399 17.3639ZM50.1039 4.96385L41.9999 10.8479L33.8959 4.95585C39.2288 3.72783 44.771 3.72783 50.1039 4.95585V4.96385ZM29.1039 6.42785L39.9999 14.3379V25.6619L27.7639 34.5599L18.2479 30.2979L14.0599 17.3639C18.017 12.4463 23.2104 8.66933 29.1079 6.41985L29.1039 6.42785ZM6.1359 36.8939C6.60235 31.4289 8.32958 26.1466 11.1819 21.4619L14.2699 30.9999L6.1359 36.8939Z" fill="#005598"/>
<path d="M84.556 66.076C80.7775 61.667 76.0909 58.1265 70.8171 55.6971C65.5432 53.2676 59.8066 52.0065 54 52C46.1623 51.9881 38.4951 54.2881 31.958 58.612C31.7262 58.7506 31.5249 58.9348 31.3662 59.1533C31.2075 59.3718 31.0946 59.6202 31.0345 59.8835C30.9744 60.1468 30.9683 60.4195 31.0164 60.6852C31.0646 60.951 31.1661 61.2042 31.3148 61.4297C31.4634 61.6551 31.6562 61.8481 31.8815 61.997C32.1068 62.146 32.36 62.2477 32.6256 62.2962C32.8913 62.3446 33.1641 62.3387 33.4274 62.2789C33.6908 62.2191 33.9393 62.1065 34.158 61.948C34.358 61.812 34.574 61.698 34.78 61.568C36.4061 67.0854 36.4012 72.9554 34.766 78.47C34.3107 78.2297 33.78 78.1755 33.2855 78.3189C32.7911 78.4623 32.3717 78.7921 32.1157 79.2387C31.8597 79.6853 31.7871 80.2139 31.9133 80.713C32.0395 81.2121 32.3545 81.6427 32.792 81.914C39.1465 85.9008 46.4984 88.0106 54 88C59.8079 87.9932 65.5458 86.7313 70.8208 84.3008C76.0957 81.8703 80.7831 78.3285 84.562 73.918C85.486 72.8201 85.9921 71.4309 85.991 69.9959C85.9899 68.561 85.4816 67.1726 84.556 66.076ZM38.338 80.4C40.5554 73.644 40.5554 66.3561 38.338 59.6C43.2215 57.235 48.5775 56.0075 54.0036 56.01C59.4297 56.0124 64.7846 57.2446 69.666 59.614C67.4491 66.3702 67.4491 73.6579 69.666 80.414C64.7861 82.7864 59.431 84.0191 54.005 84.0191C48.579 84.0191 43.2239 82.7864 38.344 80.414L38.338 80.4ZM81.524 71.318C79.126 74.0911 76.3247 76.4879 73.214 78.428C71.5954 72.928 71.5954 67.0781 73.214 61.578C76.3226 63.5169 79.122 65.9124 81.518 68.684C81.8283 69.0516 81.9991 69.5169 82.0002 69.998C82.0013 70.479 81.8326 70.9451 81.524 71.314V71.318Z" fill="#005598"/>
<path d="M62 68H60V67C60 66.4696 59.7893 65.9609 59.4142 65.5858C59.0391 65.2107 58.5304 65 58 65C57.4696 65 56.9609 65.2107 56.5858 65.5858C56.2107 65.9609 56 66.4696 56 67V68H52V67C52 66.4696 51.7893 65.9609 51.4142 65.5858C51.0391 65.2107 50.5304 65 50 65C49.4696 65 48.9609 65.2107 48.5858 65.5858C48.2107 65.9609 48 66.4696 48 67V68H46C45.4696 68 44.9609 68.2107 44.5858 68.5858C44.2107 68.9609 44 69.4696 44 70C44 70.5304 44.2107 71.0391 44.5858 71.4142C44.9609 71.7893 45.4696 72 46 72H48V73C48 73.5304 48.2107 74.0391 48.5858 74.4142C48.9609 74.7893 49.4696 75 50 75C50.5304 75 51.0391 74.7893 51.4142 74.4142C51.7893 74.0391 52 73.5304 52 73V72H56V73C56 73.5304 56.2107 74.0391 56.5858 74.4142C56.9609 74.7893 57.4696 75 58 75C58.5304 75 59.0391 74.7893 59.4142 74.4142C59.7893 74.0391 60 73.5304 60 73V72H62C62.5304 72 63.0391 71.7893 63.4142 71.4142C63.7893 71.0391 64 70.5304 64 70C64 69.4696 63.7893 68.9609 63.4142 68.5858C63.0391 68.2107 62.5304 68 62 68Z" fill="#005598"/>
<path d="M15 56C12.0333 56 9.13319 56.8797 6.66645 58.528C4.19972 60.1762 2.27713 62.5189 1.14181 65.2598C0.00649929 68.0006 -0.290551 71.0166 0.288228 73.9264C0.867006 76.8361 2.29562 79.5088 4.3934 81.6066C6.49119 83.7044 9.16394 85.133 12.0737 85.7118C14.9834 86.2906 17.9994 85.9935 20.7403 84.8582C23.4811 83.7229 25.8238 81.8003 27.4721 79.3336C29.1203 76.8668 30 73.9667 30 71C29.9958 67.0231 28.4141 63.2102 25.6019 60.3981C22.7898 57.586 18.977 56.0042 15 56ZM14.13 60.044C13.9424 62.6569 12.8196 65.1148 10.9672 66.9672C9.11481 68.8196 6.65695 69.9424 4.04401 70.13C4.25282 67.5247 5.38251 65.0788 7.23067 63.2307C9.07883 61.3825 11.5247 60.2528 14.13 60.044ZM4.45801 74.118C7.98488 73.8319 11.2948 72.3 13.7954 69.7965C16.296 67.293 17.8241 63.9812 18.106 60.454C19.8678 60.9768 21.4711 61.9313 22.7703 63.2309C24.0696 64.5306 25.0237 66.1341 25.546 67.896C22.0185 68.1748 18.706 69.7024 16.2037 72.2043C13.7014 74.7063 12.1733 78.0185 11.894 81.546C10.1347 81.0238 8.53334 80.0711 7.23495 78.7741C5.93657 77.4771 4.98212 75.8768 4.45801 74.118ZM15.87 81.956C16.0583 79.3429 17.1813 76.885 19.0334 75.0322C20.8856 73.1793 23.343 72.0553 25.956 71.866C25.7481 74.472 24.6188 76.9188 22.7706 78.7678C20.9223 80.6168 18.476 81.7471 15.87 81.956Z" fill="#005598"/>
</svg>
